<svg width="430" height="91" viewBox="0 0 430 91" fill="none" xmlns="http://www.w3.org/2000/svg">
<path d="M50.3999 24.6C54.1999 29.1 56.0999 35.7 56.0999 44.5C56.0999 50.5 55.0999 55.5 53.2999 59.6C51.4999 63.8 48.8999 66.9 45.6999 68.9C42.4999 70.9 38.7999 71.9 34.6999 71.9C30.0999 71.9 26.1999 70.8 22.9999 68.4C19.7999 66 17.3999 62.5 15.9999 57.8H13.8999L14.0999 60.1C14.7999 67.3 15.1999 73.7 15.1999 79.5V90.7H-9.74834e-05V19.3H12.4999L13.7999 32.3H15.6999C17.0999 27.7 19.4999 24.1 22.6999 21.6C25.8999 19.2 30.0999 17.9 35.0999 17.9C41.4999 17.9 46.5999 20.2 50.3999 24.6ZM37.2999 56.8C39.1999 54.1 40.1999 50.2 40.1999 45C40.1999 39.6 39.2999 35.5 37.4999 32.7C35.6999 30 32.8999 28.6 29.1999 28.6C25.4999 28.6 22.5999 30.1 20.3999 33.1C18.1999 36.1 17.1999 40 17.1999 44.8C17.1999 49.8 18.1999 53.7 20.3999 56.5C22.5999 59.4 25.3999 60.8 28.9999 60.8C32.5999 60.8 35.3999 59.5 37.2999 56.8ZM91.0507 68.6C90.2507 69.4 88.5507 70.1 86.1507 70.8C83.7507 71.6 81.1507 71.9 78.3507 71.9C73.6507 71.9 70.1507 70.8 67.9507 68.6C65.6507 66.4 64.5507 62.9 64.5507 57.9V-4.29153e-06H79.7507V55.2C79.7507 58.6 81.2507 60.3 84.2507 60.3C85.0507 60.3 85.9507 60.2 86.8507 59.9C87.6507 59.6 88.3507 59.3 88.8507 58.9L91.0507 68.6ZM152.366 68.5C151.366 69.3 149.966 70.1 148.166 70.8C146.366 71.6 144.466 71.9 142.466 71.9C139.066 71.9 136.566 71.1 134.766 69.4C132.966 67.7 132.166 65.2 132.166 61.8C132.166 61.2 132.266 59.8 132.566 57.8H130.466C129.266 62.6 127.166 66.2 124.166 68.5C121.166 70.8 117.066 71.9 111.866 71.9C106.466 71.9 102.166 70.6 99.1655 67.8C96.0655 65 94.5655 61.4 94.5655 56.8C94.5655 51.3 96.7655 47.1 101.366 44.2C105.966 41.4 112.066 39.9 119.766 39.9C122.766 39.9 125.866 40.1 129.266 40.5V37.3C129.266 31.5 126.266 28.5 120.266 28.5C114.966 28.5 111.666 31.4 110.366 37.2L96.8655 34.6C97.4655 29.6 100.066 25.6 104.466 22.5C108.866 19.5 114.566 17.9 121.766 17.9C129.166 17.9 134.866 19.6 138.666 22.8C142.466 26.1 144.466 30.7 144.466 36.7V55.2C144.466 56.7 144.666 57.9 145.266 58.7C145.766 59.6 146.466 60 147.366 60C148.166 60 148.966 59.7 149.766 59.1L152.366 68.5ZM129.066 47.2C127.266 47 125.466 46.9 123.866 46.9C119.466 46.9 116.166 47.7 113.766 49.1C111.366 50.5 110.166 52.6 110.166 55.4C110.166 57.4 110.766 59 111.966 60.1C113.166 61.2 114.866 61.7 116.966 61.7C124.166 61.7 128.266 56.9 129.066 47.2ZM196.222 63.7C194.822 65.7 192.422 67.6 189.222 69.3C185.922 71.1 182.022 71.9 177.522 71.9C171.922 71.9 167.722 70.7 164.922 68.1C162.122 65.5 160.722 61.8 160.722 57V29.5H154.122V19.3H162.522L168.022 5.1H175.822V19.3H193.422V29.5H175.822V54.3C175.822 58.4 178.022 60.4 182.422 60.4C184.422 60.4 186.422 59.8 188.322 58.6C190.122 57.4 191.622 56.2 192.622 54.9L196.222 63.7ZM206.639 65.2C201.639 60.7 199.239 54.1 199.239 45.4C199.239 36.4 201.739 29.6 206.739 24.9C211.739 20.3 218.439 17.9 226.639 17.9C231.839 17.9 236.539 18.9 240.739 20.9C244.839 22.9 248.039 25.9 250.439 29.9C252.839 33.9 254.039 38.7 254.039 44.5C254.039 53.5 251.539 60.4 246.639 65C241.739 69.6 235.039 71.9 226.639 71.9C218.239 71.9 211.539 69.7 206.639 65.2ZM235.339 56.6C237.339 53.8 238.439 49.8 238.439 44.8C238.439 39.5 237.339 35.5 235.339 32.7C233.239 30 230.339 28.6 226.639 28.6C222.839 28.6 219.939 30 217.939 32.7C215.939 35.5 214.939 39.5 214.939 44.8C214.939 49.8 215.939 53.8 217.939 56.6C219.939 59.4 222.839 60.8 226.639 60.8C230.439 60.8 233.339 59.4 235.339 56.6ZM308.5 22.2C311.3 25.1 312.7 29.2 312.7 34.6V70.5H297.6V39.9C297.6 36.9 296.9 34.5 295.5 32.9C294.1 31.3 292.1 30.4 289.4 30.4C285.7 30.4 282.8 32.2 280.8 35.7C278.7 39.2 277.7 44.6 277.7 52V70.5H262.5V19.3H275L276.3 32.3H278.2C281.1 22.7 287.3 17.9 296.8 17.9C301.8 17.9 305.7 19.4 308.5 22.2ZM328.137 68.1C323.937 65.5 321.437 61.7 320.837 56.7L333.137 53.8C333.737 58.6 337.537 61 344.537 61C347.337 61 349.637 60.6 351.337 59.6C352.937 58.7 353.837 57.3 353.837 55.3C353.837 53.8 353.237 52.6 352.137 51.8C350.937 51 349.437 50.4 347.437 50C345.437 49.6 342.437 49.2 338.537 48.7C333.337 48.1 329.137 46.6 325.937 44.4C322.737 42.2 321.237 38.7 321.237 33.9C321.237 29.1 323.137 25.3 327.137 22.3C331.137 19.4 336.837 17.9 344.237 17.9C358.437 17.9 366.237 23.1 367.637 33.3L355.437 35.9C355.037 33.5 354.037 31.6 352.337 30.3C350.637 29.1 348.137 28.4 344.837 28.4C342.037 28.4 339.837 28.9 338.337 29.7C336.737 30.5 336.037 31.7 336.037 33.3C336.037 34.8 336.637 35.9 337.837 36.7C339.037 37.5 340.537 38 342.437 38.3C344.337 38.7 347.137 39 350.837 39.3C356.337 39.9 360.637 41.3 363.837 43.5C367.037 45.7 368.637 49.4 368.637 54.4C368.637 60 366.437 64.4 362.137 67.4C357.737 70.4 352.037 71.9 344.837 71.9C337.837 71.9 332.337 70.7 328.137 68.1ZM381.932 65.2C376.932 60.7 374.532 54.1 374.532 45.4C374.532 36.4 377.032 29.6 382.032 24.9C387.032 20.3 393.732 17.9 401.932 17.9C407.132 17.9 411.832 18.9 416.032 20.9C420.132 22.9 423.332 25.9 425.732 29.9C428.132 33.9 429.332 38.7 429.332 44.5C429.332 53.5 426.832 60.4 421.932 65C417.032 69.6 410.332 71.9 401.932 71.9C393.532 71.9 386.832 69.7 381.932 65.2ZM410.632 56.6C412.632 53.8 413.732 49.8 413.732 44.8C413.732 39.5 412.632 35.5 410.632 32.7C408.532 30 405.632 28.6 401.932 28.6C398.132 28.6 395.232 30 393.232 32.7C391.232 35.5 390.232 39.5 390.232 44.8C390.232 49.8 391.232 53.8 393.232 56.6C395.232 59.4 398.132 60.8 401.932 60.8C405.732 60.8 408.632 59.4 410.632 56.6Z" fill="black"/>
</svg>
